<svg preserveAspectRatio="none" width="100%" height="100%" overflow="visible" style="display: block;" viewBox="0 0 26 26" fill="none" xmlns="http://www.w3.org/2000/svg">
<g id="web-icon / lucide">
<path id="Vector" d="M17.3333 10.8333H8.66667C6.87174 10.8333 5.41667 12.2884 5.41667 14.0833V18.4167C5.41667 20.2116 6.87174 21.6667 8.66667 21.6667H17.3333C19.1283 21.6667 20.5833 20.2116 20.5833 18.4167V14.0833C20.5833 12.2884 19.1283 10.8333 17.3333 10.8333Z" stroke="var(--stroke-0, #10C76F)" stroke-width="2.2" stroke-linecap="round" stroke-linejoin="round"/>
<path id="Vector_2" d="M8.66667 10.8333V8.66667C8.66667 7.5174 9.12321 6.41519 9.93587 5.60254C10.7485 4.78988 11.8507 4.33333 13 4.33333C14.1493 4.33333 15.2515 4.78988 16.0641 5.60254C16.8768 6.41519 17.3333 7.5174 17.3333 8.66667V10.8333" stroke="var(--stroke-0, #10C76F)" stroke-width="2.2" stroke-linecap="round" stroke-linejoin="round"/>
</g>
</svg>
