<svg preserveAspectRatio="none" width="100%" height="100%" overflow="visible" style="display: block;" viewBox="0 0 26 26" fill="none" xmlns="http://www.w3.org/2000/svg">
<g id="web-icon / lucide">
<path id="Vector" d="M13 22.75C13 22.75 20.5833 17.1167 20.5833 10.8333C20.5833 9.83748 20.3872 8.85137 20.0061 7.93132C19.625 7.01127 19.0664 6.17528 18.3622 5.47111C17.658 4.76693 16.8221 4.20834 15.902 3.82725C14.982 3.44615 13.9959 3.25 13 3.25C12.0041 3.25 11.018 3.44615 10.098 3.82725C9.17793 4.20834 8.34195 4.76693 7.63777 5.47111C6.9336 6.17528 6.37501 7.01127 5.99391 7.93132C5.61282 8.85137 5.41667 9.83748 5.41667 10.8333C5.41667 17.1167 13 22.75 13 22.75Z" stroke="var(--stroke-0, #10C76F)" stroke-width="2.4" stroke-linecap="round" stroke-linejoin="round"/>
<path id="Vector_2" d="M13 13.4333C14.4359 13.4333 15.6 12.2693 15.6 10.8333C15.6 9.39739 14.4359 8.23333 13 8.23333C11.5641 8.23333 10.4 9.39739 10.4 10.8333C10.4 12.2693 11.5641 13.4333 13 13.4333Z" stroke="var(--stroke-0, #10C76F)" stroke-width="2.4" stroke-linecap="round" stroke-linejoin="round"/>
</g>
</svg>
