<svg preserveAspectRatio="none" width="100%" height="100%" overflow="visible" style="display: block;" viewBox="0 0 26 26" fill="none" xmlns="http://www.w3.org/2000/svg">
<g id="web-icon / lucide">
<path id="Vector" d="M6.5 14.8417C7.51712 14.8417 8.34167 14.0171 8.34167 13C8.34167 11.9829 7.51712 11.1583 6.5 11.1583C5.48288 11.1583 4.65833 11.9829 4.65833 13C4.65833 14.0171 5.48288 14.8417 6.5 14.8417Z" fill="var(--fill-0, #10C76F)"/>
<path id="Vector_2" d="M13 14.8417C14.0171 14.8417 14.8417 14.0171 14.8417 13C14.8417 11.9829 14.0171 11.1583 13 11.1583C11.9829 11.1583 11.1583 11.9829 11.1583 13C11.1583 14.0171 11.9829 14.8417 13 14.8417Z" fill="var(--fill-0, #10C76F)"/>
<path id="Vector_3" d="M19.5 14.8417C20.5171 14.8417 21.3417 14.0171 21.3417 13C21.3417 11.9829 20.5171 11.1583 19.5 11.1583C18.4829 11.1583 17.6583 11.9829 17.6583 13C17.6583 14.0171 18.4829 14.8417 19.5 14.8417Z" fill="var(--fill-0, #10C76F)"/>
</g>
</svg>
