<svg preserveAspectRatio="none" width="100%" height="100%" overflow="visible" style="display: block;" viewBox="0 0 26 26" fill="none" xmlns="http://www.w3.org/2000/svg">
<g id="web-icon / lucide">
<path id="Vector" d="M16.25 5.41667H9.75C7.35677 5.41667 5.41667 7.35677 5.41667 9.75V16.25C5.41667 18.6432 7.35677 20.5833 9.75 20.5833H16.25C18.6432 20.5833 20.5833 18.6432 20.5833 16.25V9.75C20.5833 7.35677 18.6432 5.41667 16.25 5.41667Z" stroke="var(--stroke-0, #10C76F)" stroke-width="2" stroke-linecap="round" stroke-linejoin="round"/>
<path id="Vector_2" d="M13 16.25C14.7949 16.25 16.25 14.7949 16.25 13C16.25 11.2051 14.7949 9.75 13 9.75C11.2051 9.75 9.75 11.2051 9.75 13C9.75 14.7949 11.2051 16.25 13 16.25Z" stroke="var(--stroke-0, #10C76F)" stroke-width="2" stroke-linecap="round" stroke-linejoin="round"/>
<path id="Vector_3" d="M17.0833 9.66667C17.6816 9.66667 18.1667 9.18164 18.1667 8.58333C18.1667 7.98502 17.6816 7.5 17.0833 7.5C16.485 7.5 16 7.98502 16 8.58333C16 9.18164 16.485 9.66667 17.0833 9.66667Z" fill="var(--fill-0, #10C76F)"/>
</g>
</svg>
