<svg preserveAspectRatio="none" width="100%" height="100%" overflow="visible" style="display: block;" viewBox="0 0 26 26" fill="none" xmlns="http://www.w3.org/2000/svg">
<g id="web-icon / lucide">
<path id="Vector" d="M10.8333 11.9167C12.6283 11.9167 14.0833 10.4616 14.0833 8.66667C14.0833 6.87174 12.6283 5.41667 10.8333 5.41667C9.03841 5.41667 7.58333 6.87174 7.58333 8.66667C7.58333 10.4616 9.03841 11.9167 10.8333 11.9167Z" stroke="var(--stroke-0, #10C76F)" stroke-width="2" stroke-linecap="round" stroke-linejoin="round"/>
<path id="Vector_2" d="M4.33333 21.6667C4.33333 19.9428 5.01815 18.2895 6.23714 17.0705C7.45613 15.8515 9.10943 15.1667 10.8333 15.1667C12.5572 15.1667 14.2105 15.8515 15.4295 17.0705C16.6485 18.2895 17.3333 19.9428 17.3333 21.6667" stroke="var(--stroke-0, #10C76F)" stroke-width="2" stroke-linecap="round" stroke-linejoin="round"/>
<path id="Vector_3" d="M19.3333 9L20.6333 11.6L23.6667 12.9L20.6333 14.0917L19.3333 16.5833L18.0333 14.0917L15 12.9L18.0333 11.6L19.3333 9Z" stroke="var(--stroke-0, #10C76F)" stroke-width="2" stroke-linecap="round" stroke-linejoin="round"/>
</g>
</svg>
