<svg preserveAspectRatio="none" width="100%" height="100%" overflow="visible" style="display: block;" viewBox="0 0 20.8461 19.7165" fill="none" xmlns="http://www.w3.org/2000/svg">
<g id="Artwork">
<path id="Path 01" d="M13.9231 18.7934V16.7934C13.9231 15.7326 13.5016 14.7151 12.7515 13.965C12.0014 13.2148 10.9839 12.7934 9.92308 12.7934H4.92308C3.86221 12.7934 2.8448 13.2148 2.09465 13.965C1.3445 14.7151 0.923077 15.7326 0.923077 16.7934V18.7934" stroke="var(--stroke-0, #10C76F)" stroke-width="1.84615" stroke-linecap="round" stroke-linejoin="round"/>
<path id="Path 02" d="M7.42309 7.79342C9.07995 7.79342 10.4231 6.45027 10.4231 4.79342C10.4231 3.13656 9.07995 1.79342 7.42309 1.79342C5.76624 1.79342 4.42309 3.13656 4.42309 4.79342C4.42309 6.45027 5.76624 7.79342 7.42309 7.79342Z" stroke="var(--stroke-0, #10C76F)" stroke-width="1.84615" stroke-linecap="round" stroke-linejoin="round"/>
<path id="Path 03" d="M19.9231 18.7933V16.7933C19.9224 15.907 19.6274 15.0461 19.0844 14.3456C18.5414 13.6452 17.7812 13.1449 16.9231 12.9233" stroke="var(--stroke-0, #10C76F)" stroke-width="1.84615" stroke-linecap="round" stroke-linejoin="round"/>
<path id="Path 04" d="M13.9231 0.923299C14.7835 1.1436 15.5461 1.644 16.0907 2.34561C16.6353 3.04722 16.9309 3.91013 16.9309 4.7983C16.9309 5.68647 16.6353 6.54938 16.0907 7.25099C15.5461 7.9526 14.7835 8.453 13.9231 8.6733" stroke="var(--stroke-0, #10C76F)" stroke-width="1.84615" stroke-linecap="round" stroke-linejoin="round"/>
</g>
</svg>
