<svg preserveAspectRatio="none" width="100%" height="100%" overflow="visible" style="display: block;" viewBox="0 0 18 18" fill="none" xmlns="http://www.w3.org/2000/svg">
<g id="Floating course CTA / icon">
<path id="Vector" d="M4.5 16.5C5.74264 16.5 6.75 15.4926 6.75 14.25C6.75 13.0074 5.74264 12 4.5 12C3.25736 12 2.25 13.0074 2.25 14.25C2.25 15.4926 3.25736 16.5 4.5 16.5Z" stroke="var(--stroke-0, #10B86A)" stroke-width="2" stroke-linecap="round" stroke-linejoin="round"/>
<path id="Vector_2" d="M6.75 14.25H11.25C11.8467 14.25 12.419 14.0129 12.841 13.591C13.2629 13.169 13.5 12.5967 13.5 12C13.5 11.4033 13.2629 10.831 12.841 10.409C12.419 9.98705 11.8467 9.75 11.25 9.75H6.75C6.15326 9.75 5.58097 9.51295 5.15901 9.09099C4.73705 8.66903 4.5 8.09674 4.5 7.5C4.5 6.90326 4.73705 6.33097 5.15901 5.90901C5.58097 5.48705 6.15326 5.25 6.75 5.25H11.25" stroke="var(--stroke-0, #10B86A)" stroke-width="2" stroke-linecap="round" stroke-linejoin="round"/>
<path id="Vector_3" d="M13.5 6C14.7426 6 15.75 4.99264 15.75 3.75C15.75 2.50736 14.7426 1.5 13.5 1.5C12.2574 1.5 11.25 2.50736 11.25 3.75C11.25 4.99264 12.2574 6 13.5 6Z" stroke="var(--stroke-0, #10B86A)" stroke-width="2" stroke-linecap="round" stroke-linejoin="round"/>
</g>
</svg>
