<svg preserveAspectRatio="none" width="100%" height="100%" overflow="visible" style="display: block;" viewBox="0 0 14 14" fill="none" xmlns="http://www.w3.org/2000/svg">
<g id="slot/info-row/icon">
<path id="Vector" d="M7 12.25C7 12.25 11.0833 9.21667 11.0833 5.25C11.0833 4.16703 10.6531 3.12842 9.88735 2.36265C9.12158 1.59687 8.08297 1.16667 7 1.16667C5.91703 1.16667 4.87842 1.59687 4.11265 2.36265C3.34687 3.12842 2.91667 4.16703 2.91667 5.25C2.91667 9.21667 7 12.25 7 12.25Z" stroke="var(--stroke-0, #767676)" stroke-width="2" stroke-linecap="round" stroke-linejoin="round"/>
<path id="Vector_2" d="M7 6.70833C7.80542 6.70833 8.45833 6.05542 8.45833 5.25C8.45833 4.44458 7.80542 3.79167 7 3.79167C6.19458 3.79167 5.54167 4.44458 5.54167 5.25C5.54167 6.05542 6.19458 6.70833 7 6.70833Z" stroke="var(--stroke-0, #767676)" stroke-width="2" stroke-linecap="round" stroke-linejoin="round"/>
</g>
</svg>
