<svg preserveAspectRatio="none" width="100%" height="100%" overflow="visible" style="display: block;" viewBox="0 0 10 10" fill="none" xmlns="http://www.w3.org/2000/svg">
<g id="slot/comment-item/like-icon" clip-path="url(#clip0_0_26)">
<path id="Vector" d="M8.66667 1.91667C8.4537 1.7025 8.2005 1.53254 7.92162 1.41657C7.64275 1.3006 7.3437 1.24089 7.04167 1.24089C6.73964 1.24089 6.44059 1.3006 6.16171 1.41657C5.88283 1.53254 5.62963 1.7025 5.41667 1.91667L5 2.33333L4.58333 1.91667C4.15236 1.48569 3.56783 1.24357 2.95833 1.24357C2.34884 1.24357 1.76431 1.48569 1.33333 1.91667C0.902357 2.34764 0.660236 2.93217 0.660236 3.54167C0.660236 4.15116 0.902357 4.73569 1.33333 5.16667L1.75 5.58333L5 8.75L8.25 5.58333L8.66667 5.16667C8.88083 4.9537 9.05079 4.7005 9.16676 4.42162C9.28274 4.14275 9.34244 3.8437 9.34244 3.54167C9.34244 3.23964 9.28274 2.94059 9.16676 2.66171C9.05079 2.38283 8.88083 2.12963 8.66667 1.91667Z" stroke="var(--stroke-0, #999999)" stroke-width="2" stroke-linecap="round" stroke-linejoin="round"/>
</g>
<defs>
<clipPath id="clip0_0_26">
<rect width="10" height="10" fill="white"/>
</clipPath>
</defs>
</svg>
