<svg preserveAspectRatio="none" width="100%" height="100%" overflow="visible" style="display: block;" viewBox="0 0 18 18" fill="none" xmlns="http://www.w3.org/2000/svg">
<g id="Floating course CTA / icon">
<path id="Vector" d="M4.5 15C5.32843 15 6 14.3284 6 13.5C6 12.6716 5.32843 12 4.5 12C3.67157 12 3 12.6716 3 13.5C3 14.3284 3.67157 15 4.5 15Z" stroke="var(--stroke-0, #14C86E)" stroke-width="2"/>
<path id="Vector_2" d="M13.5 6C14.3284 6 15 5.32843 15 4.5C15 3.67157 14.3284 3 13.5 3C12.6716 3 12 3.67157 12 4.5C12 5.32843 12.6716 6 13.5 6Z" stroke="var(--stroke-0, #14C86E)" stroke-width="2"/>
<path id="Vector_3" d="M6 13.5H9C9.59674 13.5 10.169 13.2629 10.591 12.841C11.0129 12.419 11.25 11.8467 11.25 11.25C11.25 10.6533 11.0129 10.081 10.591 9.65901C10.169 9.23705 9.59674 9 9 9H8.25C7.65326 9 7.08097 8.76295 6.65901 8.34099C6.23705 7.91903 6 7.34674 6 6.75C6 6.15326 6.23705 5.58097 6.65901 5.15901C7.08097 4.73705 7.65326 4.5 8.25 4.5H12" stroke="var(--stroke-0, #14C86E)" stroke-width="2" stroke-linecap="round"/>
</g>
</svg>
