<svg preserveAspectRatio="none" width="100%" height="100%" overflow="visible" style="display: block;" viewBox="0 0 14 14" fill="none" xmlns="http://www.w3.org/2000/svg">
<g id="Icon / CTA / share" clip-path="url(#clip0_0_17)">
<path id="Vector" d="M10.5 4.66667C11.4665 4.66667 12.25 3.88316 12.25 2.91667C12.25 1.95017 11.4665 1.16667 10.5 1.16667C9.5335 1.16667 8.75 1.95017 8.75 2.91667C8.75 3.88316 9.5335 4.66667 10.5 4.66667Z" stroke="var(--stroke-0, #13BE66)" stroke-width="2" stroke-linecap="round" stroke-linejoin="round"/>
<path id="Vector_2" d="M3.5 8.75C4.4665 8.75 5.25 7.9665 5.25 7C5.25 6.0335 4.4665 5.25 3.5 5.25C2.5335 5.25 1.75 6.0335 1.75 7C1.75 7.9665 2.5335 8.75 3.5 8.75Z" stroke="var(--stroke-0, #13BE66)" stroke-width="2" stroke-linecap="round" stroke-linejoin="round"/>
<path id="Vector_3" d="M10.5 12.8333C11.4665 12.8333 12.25 12.0498 12.25 11.0833C12.25 10.1168 11.4665 9.33333 10.5 9.33333C9.5335 9.33333 8.75 10.1168 8.75 11.0833C8.75 12.0498 9.5335 12.8333 10.5 12.8333Z" stroke="var(--stroke-0, #13BE66)" stroke-width="2" stroke-linecap="round" stroke-linejoin="round"/>
<path id="Vector_4" d="M5.01667 6.18333L8.98333 3.73333" stroke="var(--stroke-0, #13BE66)" stroke-width="2" stroke-linecap="round" stroke-linejoin="round"/>
<path id="Vector_5" d="M5.01667 7.81667L8.98333 10.2667" stroke="var(--stroke-0, #13BE66)" stroke-width="2" stroke-linecap="round" stroke-linejoin="round"/>
</g>
<defs>
<clipPath id="clip0_0_17">
<rect width="14" height="14" fill="white"/>
</clipPath>
</defs>
</svg>
