<svg xmlns="http://www.w3.org/2000/svg" viewBox="0 0 560 560" role="img" aria-labelledby="title desc">
  <title id="title">조용한 감도 수집가 캐릭터</title>
  <desc id="desc">초록 베레모와 카메라를 든 귀여운 캐릭터</desc>
  <defs>
    <radialGradient id="bg" cx=".45" cy=".34" r=".75">
      <stop offset="0" stop-color="#f6edd2"/>
      <stop offset="1" stop-color="#e6f4e8"/>
    </radialGradient>
    <filter id="shadow" x="-20%" y="-20%" width="140%" height="140%">
      <feDropShadow dx="0" dy="20" stdDeviation="18" flood-color="#44513f" flood-opacity=".18"/>
    </filter>
  </defs>
  <circle cx="280" cy="280" r="260" fill="url(#bg)"/>
  <path d="M116 384c40-85 92-126 156-128 82-2 148 56 168 150 16 74-44 106-160 106-124 0-196-42-164-128z" fill="#89a96b" filter="url(#shadow)"/>
  <circle cx="280" cy="230" r="94" fill="#f7dcb9"/>
  <path d="M176 196c34-86 152-118 236-34 18 18 12 54-22 54H206c-28 0-40-10-30-20z" fill="#78995f"/>
  <path d="M206 216c36-36 110-54 174-16" fill="none" stroke="#5f7f4b" stroke-width="18" stroke-linecap="round"/>
  <circle cx="244" cy="238" r="9" fill="#28241d"/>
  <circle cx="316" cy="238" r="9" fill="#28241d"/>
  <path d="M260 276c16 15 38 15 56 0" fill="none" stroke="#8d6543" stroke-width="9" stroke-linecap="round"/>
  <circle cx="204" cy="262" r="16" fill="#f0bfa1" opacity=".65"/>
  <circle cx="356" cy="262" r="16" fill="#f0bfa1" opacity=".65"/>
  <rect x="194" y="342" width="170" height="92" rx="24" fill="#333831"/>
  <circle cx="280" cy="388" r="38" fill="#f1f4ed"/>
  <circle cx="280" cy="388" r="24" fill="#5a6d56"/>
  <rect x="220" y="326" width="74" height="24" rx="12" fill="#333831"/>
  <path d="M388 336c50 18 70 50 60 96" fill="none" stroke="#a67342" stroke-width="22" stroke-linecap="round"/>
  <path d="M118 360c-34-28-54-80-32-138 42 24 68 68 70 124" fill="#60945d"/>
  <rect x="74" y="344" width="86" height="76" rx="18" fill="#9a6c42"/>
</svg>
