<svg xmlns="http://www.w3.org/2000/svg" viewBox="0 0 560 560" role="img" aria-labelledby="title desc">
  <title id="title">하루 루트 설계자 캐릭터</title>
  <desc id="desc">보라색 모자와 지도를 든 귀여운 캐릭터</desc>
  <defs>
    <radialGradient id="bg" cx=".48" cy=".34" r=".74">
      <stop offset="0" stop-color="#f4e5ff"/>
      <stop offset="1" stop-color="#eef6ff"/>
    </radialGradient>
    <filter id="shadow" x="-20%" y="-20%" width="140%" height="140%">
      <feDropShadow dx="0" dy="20" stdDeviation="18" flood-color="#3a3a62" flood-opacity=".17"/>
    </filter>
  </defs>
  <circle cx="280" cy="280" r="260" fill="url(#bg)"/>
  <path d="M116 394c34-94 98-144 170-140 78 4 140 64 158 152 16 76-44 106-164 106-124 0-196-42-164-118z" fill="#9aa7e8" filter="url(#shadow)"/>
  <circle cx="280" cy="226" r="92" fill="#f5d7b8"/>
  <path d="M184 190c22-68 128-104 206-42 28 22 18 70-18 70H214c-38 0-42-13-30-28z" fill="#9272d8"/>
  <path d="M208 210c44-38 108-48 172-12" fill="none" stroke="#7b5ac9" stroke-width="18" stroke-linecap="round"/>
  <circle cx="244" cy="238" r="9" fill="#27223a"/>
  <circle cx="316" cy="238" r="9" fill="#27223a"/>
  <path d="M260 278c20 18 42 18 62 0" fill="none" stroke="#8a6247" stroke-width="9" stroke-linecap="round"/>
  <circle cx="204" cy="260" r="16" fill="#efbda1" opacity=".65"/>
  <circle cx="356" cy="260" r="16" fill="#efbda1" opacity=".65"/>
  <path d="M180 356l144-46 76 54-146 54z" fill="#fff7d8" stroke="#d8c58e" stroke-width="8" stroke-linejoin="round"/>
  <path d="M236 340l-2 58M294 324l-2 72M354 344l-94 32" fill="none" stroke="#d8c58e" stroke-width="6" stroke-linecap="round"/>
  <path d="M212 386c28-38 62-54 102-48 24 4 46 18 66 42" fill="none" stroke="#16c76b" stroke-width="9" stroke-linecap="round" stroke-dasharray="12 14"/>
  <circle cx="212" cy="386" r="13" fill="#16c76b"/>
  <circle cx="380" cy="380" r="13" fill="#16c76b"/>
  <path d="M132 348c-20-38-12-86 24-128 36 42 42 88 18 136" fill="#4b94d2"/>
  <rect x="102" y="356" width="100" height="74" rx="22" fill="#b87b45"/>
</svg>
