<svg xmlns="http://www.w3.org/2000/svg" viewBox="0 0 900 620" role="img" aria-labelledby="title desc">
  <title id="title">햇살이 드는 조용한 카페</title>
  <desc id="desc">커다란 창과 식물이 있는 따뜻한 카페 공간</desc>
  <defs>
    <linearGradient id="wall" x1="0" y1="0" x2="1" y2="1">
      <stop offset="0" stop-color="#f4e4c6"/>
      <stop offset="1" stop-color="#b78b52"/>
    </linearGradient>
    <linearGradient id="green" x1="0" y1="0" x2="1" y2="1">
      <stop offset="0" stop-color="#95b778"/>
      <stop offset="1" stop-color="#31543a"/>
    </linearGradient>
    <filter id="shadow" x="-20%" y="-20%" width="140%" height="140%">
      <feDropShadow dx="0" dy="20" stdDeviation="18" flood-color="#3a2f1d" flood-opacity=".24"/>
    </filter>
  </defs>
  <rect width="900" height="620" fill="url(#wall)"/>
  <circle cx="725" cy="82" r="160" fill="#fff4ce" opacity=".38"/>
  <rect x="90" y="72" width="310" height="408" rx="22" fill="#724b23" filter="url(#shadow)"/>
  <rect x="118" y="98" width="116" height="168" rx="10" fill="#d8f0c9"/>
  <rect x="254" y="98" width="116" height="168" rx="10" fill="#b9db9a"/>
  <rect x="118" y="286" width="116" height="160" rx="10" fill="#afc884"/>
  <rect x="254" y="286" width="116" height="160" rx="10" fill="#e6c68b"/>
  <path d="M132 230c90-105 178-102 236 2v230H132z" fill="url(#green)" opacity=".48"/>
  <path d="M506 174h170l34 52H474z" fill="#6d4a2a"/>
  <rect x="486" y="226" width="238" height="174" rx="18" fill="#d6b06e"/>
  <rect x="528" y="254" width="154" height="64" rx="12" fill="#f6dfad"/>
  <rect x="530" y="398" width="152" height="44" rx="22" fill="#3c2a1a"/>
  <rect x="286" y="458" width="390" height="54" rx="27" fill="#5f3e24"/>
  <rect x="334" y="506" width="48" height="82" rx="18" fill="#4a2e1d"/>
  <rect x="584" y="506" width="48" height="82" rx="18" fill="#4a2e1d"/>
  <ellipse cx="690" cy="472" rx="76" ry="26" fill="#f0d7a6"/>
  <ellipse cx="690" cy="468" rx="52" ry="16" fill="#8f5d30"/>
  <path d="M665 467c22 12 41 12 60 0" fill="none" stroke="#f7e8cc" stroke-width="8" stroke-linecap="round"/>
  <path d="M725 468c28-18 46-8 43 14-3 23-26 24-42 7" fill="none" stroke="#8f5d30" stroke-width="11" stroke-linecap="round"/>
  <g opacity=".92">
    <path d="M72 476c44-92 100-138 168-172-41 92-92 148-168 172z" fill="#2f6537"/>
    <path d="M142 530c40-106 106-168 190-210-42 120-104 186-190 210z" fill="#3f7b42"/>
    <path d="M80 566c70-88 144-132 224-138-62 86-136 126-224 138z" fill="#5b8d4b"/>
    <rect x="138" y="516" width="112" height="72" rx="24" fill="#8c5d35"/>
  </g>
</svg>
