<?xml version="1.0" encoding="utf-8" ?><svg xmlns="http://www.w3.org/2000/svg" xmlns:xlink="http://www.w3.org/1999/xlink" width="1024" height="1024" viewBox="0 0 1024 1024"><path d="M0 0L1024 0L1024 1024L0 1024L0 0Z"/><path fill="#2F8" d="M374.31 443.804L374.299 442.901C374.168 436.272 372.517 429.28 372.627 421.739C372.954 399.318 382.776 373.116 398.522 356.968C407.798 347.454 421.814 336.449 432.284 327.884L479.117 289.416C493.028 278.11 516.475 256.562 530.825 248.728C543.728 241.808 558.058 237.969 572.692 237.514C596.907 237.04 620.331 246.143 637.87 262.846C642.998 267.761 649.057 275.192 653.799 280.743L678.547 309.814L714.856 352.521C737.306 378.837 754.173 394.735 755.074 431.696C756.169 476.631 730.974 498.258 698.31 522.949C690.302 529.001 681.959 536.597 673.953 543.041C674.881 569.528 674.096 600.698 674.064 627.417L674.048 660.828C674.044 674.372 674.549 687.328 671.54 700.657C667.495 718.968 658.639 735.868 645.886 749.615C625.048 771.876 598.976 781.796 569.025 782.049C533.763 782.348 498.445 782.147 463.189 782.192L420.796 782.287C406.497 782.326 390.26 782.821 376.39 779.82C358.034 775.892 341.095 767.036 327.394 754.204C304.372 732.23 295.738 706.995 295.313 675.869C294.948 649.17 295.284 622.942 295.338 596.286L295.332 563.737C295.304 547.041 294.595 535.428 298.714 518.876C303.08 501.132 312.085 484.868 324.806 471.751C338.155 458.068 355.28 448.674 373.994 444.77L374.31 443.804Z"/><path d="M375.743 444.485C398.514 441.14 415.088 441.901 438.06 441.915L506.552 441.999L549.708 441.894C562.649 441.851 575.611 441.389 588.393 443.632C604.335 446.371 619.419 452.793 632.444 462.385C653.943 478.178 668.087 502.041 671.621 528.482C672.328 533.564 672.654 538.703 672.971 543.822L672.395 544.249C666.422 548.722 657.308 557.451 651.512 562.699C640.707 572.519 629.812 582.241 618.83 591.864C613.486 596.58 607.78 602.056 602.206 606.344C583.579 620.672 558.055 626.022 534.82 622.937C520.013 620.997 505.977 615.195 494.122 606.114C483.461 598.004 476.343 588.081 467.751 577.971L438.226 543.138C424.707 527.064 410.301 510.842 397.223 494.402C386.769 481.261 379.382 461.951 375.349 445.809L375.743 444.485Z"/><path fill="#57D4AA" d="M374.31 443.804C374.822 444.022 375.246 444.238 375.743 444.485L375.349 445.809L373.994 444.77L374.31 443.804Z"/></svg>