<svg preserveAspectRatio="none" width="100%" height="100%" overflow="visible" style="display: block;" viewBox="0 0 20 20" fill="none" xmlns="http://www.w3.org/2000/svg">
<g id="slot/settings-row/icon">
<path id="Vector" d="M15 6.66667C15 5.34058 14.4732 4.06881 13.5355 3.13113C12.5979 2.19345 11.3261 1.66667 10 1.66667C8.67392 1.66667 7.40215 2.19345 6.46447 3.13113C5.52678 4.06881 5 5.34058 5 6.66667C5 12.5 2.5 13.3333 2.5 13.3333H17.5C17.5 13.3333 15 12.5 15 6.66667Z" stroke="var(--stroke-0, #10C76F)" stroke-width="2" stroke-linecap="round" stroke-linejoin="round"/>
<path id="Vector_2" d="M11.4167 16.6667C11.2672 16.9078 11.0586 17.1069 10.8107 17.2449C10.5628 17.3829 10.2837 17.4554 10 17.4554C9.71626 17.4554 9.43721 17.3829 9.18929 17.2449C8.94138 17.1069 8.73281 16.9078 8.58333 16.6667" stroke="var(--stroke-0, #10C76F)" stroke-width="2" stroke-linecap="round"/>
</g>
</svg>
