<svg preserveAspectRatio="none" width="100%" height="100%" overflow="visible" style="display: block;" viewBox="0 0 22 22" fill="none" xmlns="http://www.w3.org/2000/svg">
<g id="slot/settings-row/icon">
<path id="Vector" d="M19.25 10.5417C19.25 11.5649 19.0485 12.5781 18.6569 13.5234C18.2653 14.4687 17.6914 15.3277 16.9679 16.0512C16.2444 16.7747 15.3854 17.3487 14.4401 17.7402C13.4947 18.1318 12.4815 18.3333 11.4583 18.3333H5.5L2.75 20.1667L3.85 16.3167C3.47081 15.3055 3.2945 14.2295 3.33113 13.1502C3.36776 12.0709 3.61662 11.0094 4.06351 10.0262C4.51039 9.04307 5.14654 8.15758 5.93564 7.42029C6.72473 6.683 7.65132 6.10836 8.6625 5.72917C9.67368 5.34997 10.7496 5.17366 11.829 5.2103C12.9083 5.24693 13.9698 5.49579 14.953 5.94267C15.9361 6.38956 16.8216 7.02571 17.5589 7.8148C18.2962 8.6039 18.8708 9.53049 19.25 10.5417Z" stroke="var(--stroke-0, #10C76F)" stroke-width="2" stroke-linecap="round" stroke-linejoin="round"/>
</g>
</svg>
