<svg preserveAspectRatio="none" width="100%" height="100%" overflow="visible" style="display: block;" viewBox="0 0 20 20" fill="none" xmlns="http://www.w3.org/2000/svg">
<g id="slot/settings-row/icon">
<path id="Vector" d="M17.5 9.58333C17.5 10.5135 17.3168 11.4346 16.9608 12.294C16.6048 13.1534 16.0831 13.9343 15.4253 14.592C14.7676 15.2498 13.9867 15.7715 13.1273 16.1275C12.268 16.4835 11.3469 16.6667 10.4167 16.6667H5L2.5 18.3333L3.5 14.8333C3.15528 13.9141 2.995 12.9359 3.0283 11.9547C3.0616 10.9735 3.28784 10.0085 3.6941 9.11474C4.10035 8.22098 4.67867 7.41598 5.39603 6.74572C6.11339 6.07546 6.95575 5.55305 7.875 5.20833C8.79425 4.86361 9.7724 4.70333 10.7536 4.73663C11.7348 4.76994 12.6998 4.99617 13.5936 5.40243C14.4874 5.80869 15.2924 6.38701 15.9626 7.10437C16.6329 7.82173 17.1553 8.66408 17.5 9.58333Z" stroke="var(--stroke-0, #10C76F)" stroke-width="2" stroke-linecap="round" stroke-linejoin="round"/>
</g>
</svg>
