<svg preserveAspectRatio="none" width="100%" height="100%" viewBox="0 0 26 26" fill="none" xmlns="http://www.w3.org/2000/svg">
<g id="Icon / nav settings">
<path id="Vector" d="M13 16.7917C13.4979 16.7917 13.991 16.6936 14.451 16.503C14.911 16.3125 15.329 16.0332 15.6811 15.6811C16.0332 15.329 16.3125 14.911 16.503 14.451C16.6936 13.991 16.7917 13.4979 16.7917 13C16.7917 12.5021 16.6936 12.009 16.503 11.549C16.3125 11.089 16.0332 10.671 15.6811 10.3189C15.329 9.9668 14.911 9.68751 14.451 9.49696C13.991 9.30641 13.4979 9.20833 13 9.20833C11.9944 9.20833 11.03 9.60781 10.3189 10.3189C9.60781 11.03 9.20833 11.9944 9.20833 13C9.20833 14.0056 9.60781 14.97 10.3189 15.6811C11.03 16.3922 11.9944 16.7917 13 16.7917Z" stroke="var(--stroke-0, #6A7471)" stroke-width="2"/>
<path id="Vector_2" d="M20.3017 12.5775V9.7825L18.252 9.31667C18.0657 8.75767 17.7862 8.29183 17.5067 7.826L18.6247 6.05583L16.6682 4.09933L14.898 5.21733C14.4322 4.93783 13.9663 4.7515 13.4073 4.56517L12.8483 2.60867H10.0533L9.5875 4.56517C9.0285 4.7515 8.56267 4.93783 8.09683 5.21733L6.32667 4.09933L4.37017 6.05583L5.48817 7.826C5.20867 8.29183 4.92917 8.75767 4.74283 9.31667L2.78633 9.7825V12.5775L4.74283 13.0433C4.92917 13.6023 5.20867 14.0682 5.48817 14.534L4.37017 16.3042L6.32667 18.2607L8.09683 17.1427C8.56267 17.4222 9.0285 17.6085 9.5875 17.7948L10.0533 19.7513H12.8483L13.4073 17.7948C13.9663 17.6085 14.4322 17.4222 14.898 17.1427L16.6682 18.2607L18.6247 16.3042L17.5067 14.534C17.7862 14.0682 18.0657 13.6023 18.252 13.0433L20.3017 12.5775Z" stroke="var(--stroke-0, #6A7471)" stroke-width="1.204" stroke-linejoin="round"/>
</g>
</svg>
