<svg preserveAspectRatio="none" width="100%" height="100%" overflow="visible" style="display: block;" viewBox="0 0 26 26" fill="none" xmlns="http://www.w3.org/2000/svg">
<g id="Icon / nav course active">
<path id="Vector" d="M6.5 18.4167C9.20833 18.4167 9.20833 7.58333 13 7.58333C16.7917 7.58333 16.7917 18.4167 19.5 18.4167" stroke="var(--stroke-0, #12C76A)" stroke-width="2.4" stroke-linecap="round"/>
<path id="Vector_2" d="M6.5 21.0167C7.93594 21.0167 9.1 19.8526 9.1 18.4167C9.1 16.9807 7.93594 15.8167 6.5 15.8167C5.06406 15.8167 3.9 16.9807 3.9 18.4167C3.9 19.8526 5.06406 21.0167 6.5 21.0167Z" stroke="var(--stroke-0, #12C76A)" stroke-width="2.2"/>
<path id="Vector_3" d="M13 10.1833C14.4359 10.1833 15.6 9.01927 15.6 7.58333C15.6 6.14739 14.4359 4.98333 13 4.98333C11.5641 4.98333 10.4 6.14739 10.4 7.58333C10.4 9.01927 11.5641 10.1833 13 10.1833Z" stroke="var(--stroke-0, #12C76A)" stroke-width="2.2"/>
<path id="Vector_4" d="M19.5 21.0167C20.9359 21.0167 22.1 19.8526 22.1 18.4167C22.1 16.9807 20.9359 15.8167 19.5 15.8167C18.0641 15.8167 16.9 16.9807 16.9 18.4167C16.9 19.8526 18.0641 21.0167 19.5 21.0167Z" stroke="var(--stroke-0, #12C76A)" stroke-width="2.2"/>
</g>
</svg>
