<svg preserveAspectRatio="none" width="100%" height="100%" overflow="visible" style="display: block;" viewBox="0 0 22 22" fill="none" xmlns="http://www.w3.org/2000/svg">
<g id="slot/settings-row/icon">
<path id="Vector" d="M5.5 17.4167C7.79167 17.4167 7.79167 13.75 10.0833 13.75H11.9167C14.2083 13.75 14.2083 10.0833 16.5 10.0833" stroke="var(--stroke-0, #10C76F)" stroke-width="2" stroke-linecap="round"/>
<path id="Vector_2" d="M5.5 19.25C6.51252 19.25 7.33333 18.4292 7.33333 17.4167C7.33333 16.4041 6.51252 15.5833 5.5 15.5833C4.48748 15.5833 3.66667 16.4041 3.66667 17.4167C3.66667 18.4292 4.48748 19.25 5.5 19.25Z" stroke="var(--stroke-0, #10C76F)" stroke-width="2"/>
<path id="Vector_3" d="M16.5 11.9167C17.5125 11.9167 18.3333 11.0959 18.3333 10.0833C18.3333 9.07081 17.5125 8.25 16.5 8.25C15.4875 8.25 14.6667 9.07081 14.6667 10.0833C14.6667 11.0959 15.4875 11.9167 16.5 11.9167Z" stroke="var(--stroke-0, #10C76F)" stroke-width="2"/>
<path id="Vector_4" d="M11 6.41667C12.0125 6.41667 12.8333 5.59586 12.8333 4.58333C12.8333 3.57081 12.0125 2.75 11 2.75C9.98748 2.75 9.16667 3.57081 9.16667 4.58333C9.16667 5.59586 9.98748 6.41667 11 6.41667Z" stroke="var(--stroke-0, #10C76F)" stroke-width="2"/>
</g>
</svg>
