<svg preserveAspectRatio="none" width="100%" height="100%" overflow="visible" style="display: block;" viewBox="0 0 22 22" fill="none" xmlns="http://www.w3.org/2000/svg">
<g id="svg / add course">
<path id="Vector" d="M5.5 20.1667C7.01878 20.1667 8.25 18.9355 8.25 17.4167C8.25 15.8979 7.01878 14.6667 5.5 14.6667C3.98122 14.6667 2.75 15.8979 2.75 17.4167C2.75 18.9355 3.98122 20.1667 5.5 20.1667Z" stroke="var(--stroke-0, #10C96B)" stroke-width="2.2" stroke-linecap="round" stroke-linejoin="round"/>
<path id="Vector_2" d="M8.25 17.4167H16.0417C16.8926 17.4167 17.7086 17.0786 18.3103 16.477C18.912 15.8753 19.25 15.0592 19.25 14.2083C19.25 13.3574 18.912 12.5414 18.3103 11.9397C17.7086 11.338 16.8926 11 16.0417 11H5.95833C5.10743 11 4.29138 10.662 3.6897 10.0603C3.08802 9.45862 2.75 8.64257 2.75 7.79167C2.75 6.94076 3.08802 6.12471 3.6897 5.52303C4.29138 4.92135 5.10743 4.58333 5.95833 4.58333H13.75" stroke="var(--stroke-0, #10C96B)" stroke-width="2.2" stroke-linecap="round" stroke-linejoin="round"/>
<path id="Vector_3" d="M16.5 7.33333C18.0188 7.33333 19.25 6.10212 19.25 4.58333C19.25 3.06455 18.0188 1.83333 16.5 1.83333C14.9812 1.83333 13.75 3.06455 13.75 4.58333C13.75 6.10212 14.9812 7.33333 16.5 7.33333Z" stroke="var(--stroke-0, #10C96B)" stroke-width="2.2" stroke-linecap="round" stroke-linejoin="round"/>
</g>
</svg>
