<svg preserveAspectRatio="none" width="100%" height="100%" overflow="visible" style="display: block;" viewBox="0 0 14 14" fill="none" xmlns="http://www.w3.org/2000/svg">
<g id="icon / address pin small">
<path id="Vector" d="M7 12.25C8.75 9.91667 10.5 8.05 10.5 5.83333C10.5 4.90508 10.1313 4.01484 9.47487 3.35846C8.8185 2.70208 7.92826 2.33333 7 2.33333C6.07174 2.33333 5.1815 2.70208 4.52513 3.35846C3.86875 4.01484 3.5 4.90508 3.5 5.83333C3.5 8.05 5.25 9.91667 7 12.25Z" stroke="var(--stroke-0, #8B918B)" stroke-width="2"/>
<path id="Vector_2" d="M7 7C7.64433 7 8.16667 6.47767 8.16667 5.83333C8.16667 5.189 7.64433 4.66667 7 4.66667C6.35567 4.66667 5.83333 5.189 5.83333 5.83333C5.83333 6.47767 6.35567 7 7 7Z" fill="var(--fill-0, #8B918B)"/>
</g>
</svg>
