<svg preserveAspectRatio="none" width="100%" height="100%" overflow="visible" style="display: block;" viewBox="0 0 14 14" fill="none" xmlns="http://www.w3.org/2000/svg">
<g id="web-icon / lucide / footprints">
<path id="Vector" d="M2.33333 9.33333V7.93333C2.33333 7.29167 2.85833 6.76667 3.5 6.76667H4.375C4.84167 6.76667 5.25 7.05833 5.425 7.46667L5.83333 8.45833C6.06667 9.04167 5.775 9.68333 5.19167 9.91667L3.79167 10.5C3.09167 10.7917 2.33333 10.2667 2.33333 9.50833V9.33333Z" stroke="var(--stroke-0, #10C878)" stroke-width="2" stroke-linecap="round" stroke-linejoin="round"/>
<path id="Vector_2" d="M8.16667 5.71667V4.31667C8.16667 3.675 8.69167 3.15 9.33333 3.15H10.2083C10.675 3.15 11.0833 3.44167 11.2583 3.85L11.6667 4.84167C11.9 5.425 11.6083 6.06667 11.025 6.3L9.625 6.88333C8.925 7.175 8.16667 6.65 8.16667 5.89167V5.71667Z" stroke="var(--stroke-0, #10C878)" stroke-width="2" stroke-linecap="round" stroke-linejoin="round"/>
<path id="Vector_3" d="M4.08333 6.76667V4.66667" stroke="var(--stroke-0, #10C878)" stroke-width="2" stroke-linecap="round"/>
<path id="Vector_4" d="M9.91667 3.15V1.16667" stroke="var(--stroke-0, #10C878)" stroke-width="2" stroke-linecap="round"/>
</g>
</svg>
