<svg preserveAspectRatio="none" width="100%" height="100%" overflow="visible" style="display: block;" viewBox="0 0 13 13" fill="none" xmlns="http://www.w3.org/2000/svg">
<g id="web-icon / lucide / footprints">
<path id="Vector" d="M2.16667 8.66667V7.36667C2.16667 6.77083 2.65417 6.28333 3.25 6.28333H4.0625C4.49583 6.28333 4.875 6.55417 5.0375 6.93333L5.41667 7.85417C5.63333 8.39583 5.3625 8.99167 4.82083 9.20833L3.52083 9.75C2.87083 10.0208 2.16667 9.53333 2.16667 8.82917V8.66667Z" stroke="var(--stroke-0, #10C878)" stroke-width="2" stroke-linecap="round" stroke-linejoin="round"/>
<path id="Vector_2" d="M7.58333 5.30833V4.00833C7.58333 3.4125 8.07083 2.925 8.66667 2.925H9.47917C9.9125 2.925 10.2917 3.19583 10.4542 3.575L10.8333 4.49583C11.05 5.0375 10.7792 5.63333 10.2375 5.85L8.9375 6.39167C8.2875 6.6625 7.58333 6.175 7.58333 5.47083V5.30833Z" stroke="var(--stroke-0, #10C878)" stroke-width="2" stroke-linecap="round" stroke-linejoin="round"/>
<path id="Vector_3" d="M3.79167 6.28333V4.33333" stroke="var(--stroke-0, #10C878)" stroke-width="2" stroke-linecap="round"/>
<path id="Vector_4" d="M9.20833 2.925V1.08333" stroke="var(--stroke-0, #10C878)" stroke-width="2" stroke-linecap="round"/>
</g>
</svg>
