<svg preserveAspectRatio="none" width="100%" height="100%" overflow="visible" style="display: block;" viewBox="0 0 14 14" fill="none" xmlns="http://www.w3.org/2000/svg">
<g id="web-icon / lucide / heart" clip-path="url(#clip0_0_23)">
<path id="Vector" d="M12.1333 2.68333C11.8352 2.3835 11.4807 2.14556 11.0903 1.9832C10.6998 1.82084 10.2812 1.73725 9.85833 1.73725C9.43549 1.73725 9.01682 1.82084 8.62639 1.9832C8.23597 2.14556 7.88149 2.3835 7.58333 2.68333L7 3.325L6.41667 2.68333C5.8133 2.07997 4.99496 1.741 4.14167 1.741C3.28838 1.741 2.47003 2.07997 1.86667 2.68333C1.2633 3.2867 0.924331 4.10504 0.924331 4.95833C0.924331 5.81162 1.2633 6.62997 1.86667 7.23333L7 12.3667L12.1333 7.23333C12.4332 6.93518 12.6711 6.5807 12.8335 6.19027C12.9958 5.79985 13.0794 5.38117 13.0794 4.95833C13.0794 4.53549 12.9958 4.11682 12.8335 3.72639C12.6711 3.33597 12.4332 2.98149 12.1333 2.68333Z" stroke="var(--stroke-0, #10C878)" stroke-width="2.1" stroke-linecap="round" stroke-linejoin="round"/>
</g>
<defs>
<clipPath id="clip0_0_23">
<rect width="14" height="14" fill="white"/>
</clipPath>
</defs>
</svg>
