<svg preserveAspectRatio="none" width="100%" height="100%" overflow="visible" style="display: block;" viewBox="0 0 12 12" fill="none" xmlns="http://www.w3.org/2000/svg">
<g id="web-icon / lucide / heart" clip-path="url(#clip0_0_14)">
<path id="Vector" d="M10.4 2.3C10.1444 2.043 9.8406 1.83905 9.50595 1.69988C9.1713 1.56072 8.81244 1.48907 8.45 1.48907C8.08756 1.48907 7.7287 1.56072 7.39405 1.69988C7.0594 1.83905 6.75556 2.043 6.5 2.3L6 2.85L5.5 2.3C4.98283 1.78283 4.28139 1.49228 3.55 1.49228C2.81861 1.49228 2.11717 1.78283 1.6 2.3C1.08283 2.81717 0.792284 3.51861 0.792284 4.25C0.792284 4.98139 1.08283 5.68283 1.6 6.2L6 10.6L10.4 6.2C10.657 5.94444 10.8609 5.6406 11.0001 5.30595C11.1393 4.9713 11.2109 4.61244 11.2109 4.25C11.2109 3.88756 11.1393 3.5287 11.0001 3.19405C10.8609 2.8594 10.657 2.55556 10.4 2.3Z" stroke="var(--stroke-0, #10C878)" stroke-width="2.1" stroke-linecap="round" stroke-linejoin="round"/>
</g>
<defs>
<clipPath id="clip0_0_14">
<rect width="12" height="12" fill="white"/>
</clipPath>
</defs>
</svg>
