<svg preserveAspectRatio="none" width="100%" height="100%" overflow="visible" style="display: block;" viewBox="0 0 18 18" fill="none" xmlns="http://www.w3.org/2000/svg">
<g id="icon / subway">
<path id="Vector" d="M11.25 2.25H6.75C5.50736 2.25 4.5 3.25736 4.5 4.5V10.5C4.5 11.7426 5.50736 12.75 6.75 12.75H11.25C12.4926 12.75 13.5 11.7426 13.5 10.5V4.5C13.5 3.25736 12.4926 2.25 11.25 2.25Z" fill="var(--fill-0, #10C86B)"/>
<path id="Vector_2" d="M6.75 10.8C7.3299 10.8 7.8 10.3299 7.8 9.75C7.8 9.1701 7.3299 8.7 6.75 8.7C6.1701 8.7 5.7 9.1701 5.7 9.75C5.7 10.3299 6.1701 10.8 6.75 10.8Z" fill="var(--fill-0, white)"/>
<path id="Vector_3" d="M11.25 10.8C11.8299 10.8 12.3 10.3299 12.3 9.75C12.3 9.1701 11.8299 8.7 11.25 8.7C10.6701 8.7 10.2 9.1701 10.2 9.75C10.2 10.3299 10.6701 10.8 11.25 10.8Z" fill="var(--fill-0, white)"/>
<path id="Vector_4" d="M6 15L7.5 12.75M12 15L10.5 12.75" stroke="var(--stroke-0, #10C86B)" stroke-width="2" stroke-linecap="round"/>
</g>
</svg>
