<svg preserveAspectRatio="none" width="100%" height="100%" overflow="visible" style="display: block;" viewBox="0 0 24 24" fill="none" xmlns="http://www.w3.org/2000/svg">
<g id="Icon / create course">
<path id="Vector" d="M6 17C8.5 17 8.5 7 12 7C15.5 7 15.5 17 18 17" stroke="var(--stroke-0, white)" stroke-width="2.4" stroke-linecap="round"/>
<path id="Vector_2" d="M6 19.4C7.32548 19.4 8.4 18.3255 8.4 17C8.4 15.6745 7.32548 14.6 6 14.6C4.67452 14.6 3.6 15.6745 3.6 17C3.6 18.3255 4.67452 19.4 6 19.4Z" stroke="var(--stroke-0, white)" stroke-width="2.2"/>
<path id="Vector_3" d="M12 9.4C13.3255 9.4 14.4 8.32548 14.4 7C14.4 5.67452 13.3255 4.6 12 4.6C10.6745 4.6 9.6 5.67452 9.6 7C9.6 8.32548 10.6745 9.4 12 9.4Z" stroke="var(--stroke-0, white)" stroke-width="2.2"/>
<path id="Vector_4" d="M18 19.4C19.3255 19.4 20.4 18.3255 20.4 17C20.4 15.6745 19.3255 14.6 18 14.6C16.6745 14.6 15.6 15.6745 15.6 17C15.6 18.3255 16.6745 19.4 18 19.4Z" stroke="var(--stroke-0, white)" stroke-width="2.2"/>
</g>
</svg>
