<svg preserveAspectRatio="none" width="100%" height="100%" overflow="visible" style="display: block;" viewBox="0 0 92 92" fill="none" xmlns="http://www.w3.org/2000/svg">
<g id="c1a travel / iconify lucide plane-takeoff icon">
<path id="Vector" d="M7.66667 84.3333H84.3333M24.38 66.7L15.3333 65.1667L7.66667 49.8333L11.8833 47.725C12.9534 47.1858 14.135 46.9049 15.3333 46.9049C16.5316 46.9049 17.7132 47.1858 18.7833 47.725L19.435 48.1083C20.5051 48.6476 21.6867 48.9284 22.885 48.9284C24.0833 48.9284 25.2649 48.6476 26.335 48.1083L30.6667 46L19.1667 23L22.6167 21.275C23.8919 20.6477 25.3164 20.3871 26.7312 20.5225C28.1459 20.6579 29.4952 21.1839 30.6283 22.0417L46.0383 33.5417C47.1754 34.4069 48.5316 34.9372 49.954 35.0726C51.3764 35.2081 52.8084 34.9434 54.0883 34.3083L70.15 26.4117C72.2015 25.3734 74.5673 25.1409 76.7817 25.76L80.5 26.8333C81.2683 27.0467 81.9793 27.4285 82.5815 27.9511C83.1837 28.4738 83.6619 29.124 83.9813 29.8545C84.3007 30.5851 84.4533 31.3777 84.428 32.1746C84.4027 32.9715 84.2001 33.7528 83.835 34.4617L82.3783 37.375C81.4967 39.1383 80.0783 40.595 78.2767 41.515L29.0567 65.9333C27.6094 66.6502 25.9727 66.8917 24.38 66.6233V66.7Z" stroke="var(--stroke-0, #16C878)" stroke-width="7.66667" stroke-linecap="round" stroke-linejoin="round"/>
</g>
</svg>
