<svg width="1024" height="256" viewBox="0 0 1024 256" fill="none" xmlns="http://www.w3.org/2000/svg">
<g clip-path="url(#clip0_35_6)">
<g clip-path="url(#clip1_35_6)">
<path d="M167.21 45.738C174.087 45.6034 180.741 48.1893 185.723 52.9333C187.179 54.3293 188.9 56.4398 190.247 58.0164L197.275 66.2732L207.589 78.4031C213.965 85.8773 218.756 90.3929 219.012 100.89C219.323 113.653 212.166 119.796 202.889 126.809C200.614 128.528 198.244 130.685 195.971 132.515C196.234 140.038 196.012 148.891 196.003 156.48L195.998 165.97C195.997 169.817 196.14 173.497 195.285 177.283C194.136 182.484 191.621 187.284 187.999 191.188C182.08 197.511 174.675 200.328 166.169 200.4C156.153 200.485 146.122 200.427 136.108 200.44L124.068 200.468C120.007 200.479 115.394 200.619 111.455 199.766C106.242 198.651 101.43 196.135 97.5389 192.491C91.0003 186.25 88.5483 179.082 88.4276 170.242C88.3239 162.659 88.4191 155.209 88.4344 147.638L88.4325 138.393C88.4245 133.651 88.2235 130.353 89.3934 125.652C90.6335 120.612 93.1915 115.993 96.8045 112.267C100.596 108.381 105.46 105.713 110.775 104.604L110.864 104.33L110.861 104.073C110.824 102.19 110.355 100.204 110.387 98.0623C110.48 91.6942 113.269 84.2521 117.741 79.6658C120.376 76.9636 124.357 73.8387 127.331 71.406L140.633 60.4792C144.584 57.268 151.244 51.1486 155.319 48.9236C158.984 46.9582 163.054 45.8673 167.21 45.738ZM160.682 103.787L148.425 103.817L128.972 103.794C122.447 103.79 117.739 103.573 111.271 104.523L111.16 104.899C112.305 109.484 114.404 114.969 117.373 118.701C121.087 123.37 125.179 127.977 129.018 132.543L137.404 142.436C139.844 145.308 141.866 148.127 144.894 150.43C148.261 153.009 152.248 154.657 156.453 155.208C163.052 156.084 170.302 154.564 175.593 150.495C177.176 149.277 178.797 147.722 180.314 146.383C183.433 143.65 186.528 140.888 189.597 138.099C191.243 136.609 193.832 134.13 195.528 132.859L195.692 132.737C195.602 131.283 195.509 129.824 195.308 128.381C194.305 120.871 190.288 114.093 184.181 109.607C180.482 106.883 176.198 105.059 171.67 104.281C168.039 103.644 164.358 103.775 160.682 103.787Z" fill="#22FF88"/>
</g>
<g clip-path="url(#clip2_35_6)">
<path d="M293.125 53.8208H341.929C351.698 53.8208 360.66 55.402 368.809 58.5644C376.974 61.7116 384.013 66.0903 389.912 71.7004C395.811 77.2954 400.372 83.8863 403.596 91.4654C406.819 99.0292 408.43 107.216 408.43 116.035V116.369C408.43 125.187 406.819 133.42 403.596 141.06C400.372 148.685 395.811 155.306 389.912 160.916C384.013 166.511 376.974 170.92 368.809 174.144C360.66 177.352 351.698 178.948 341.929 178.948H293.125V53.8208ZM320.644 78.6638V154.105H341.929C347.524 154.105 352.64 153.216 357.285 151.429C361.945 149.627 365.905 147.066 369.174 143.736C372.458 140.391 375.02 136.461 376.867 131.938C378.707 127.399 379.634 122.329 379.634 116.734V116.369C379.634 110.896 378.707 105.841 376.867 101.196C375.02 96.5358 372.458 92.5448 369.174 89.2152C365.905 85.8704 361.945 83.2781 357.285 81.4309C352.64 79.5912 347.524 78.6638 341.929 78.6638H320.644Z" fill="black"/>
<path d="M477.075 181.107C469.671 181.107 462.814 179.83 456.489 177.275C450.18 174.706 444.737 171.186 440.16 166.724C435.576 162.247 431.966 156.994 429.335 150.973C426.72 144.952 425.413 138.491 425.413 131.573V131.208C425.413 124.298 426.72 117.844 429.335 111.838C431.966 105.818 435.607 100.55 440.252 96.0265C444.889 91.4881 450.362 87.9076 456.672 85.2926C462.996 82.6623 469.914 81.3396 477.44 81.3396C484.814 81.3396 491.656 82.6319 497.965 85.2014C504.29 87.7556 509.741 91.2753 514.324 95.7528C518.924 100.215 522.535 105.453 525.15 111.473C527.78 117.494 529.103 123.963 529.103 130.874V131.208C529.103 138.126 527.78 144.587 525.15 150.608C522.535 156.629 518.893 161.912 514.233 166.45C509.588 170.973 504.108 174.554 497.783 177.184C491.473 179.799 484.571 181.107 477.075 181.107ZM477.44 157.663C481.37 157.663 484.86 156.986 487.9 155.625C490.941 154.249 493.526 152.372 495.654 150C497.798 147.613 499.44 144.831 500.58 141.668C501.713 138.506 502.283 135.146 502.283 131.573V131.208C502.283 127.643 501.683 124.275 500.489 121.113C499.288 117.95 497.555 115.153 495.289 112.72C493.039 110.272 490.363 108.334 487.262 106.912C484.16 105.476 480.762 104.753 477.075 104.753C473.137 104.753 469.656 105.445 466.615 106.821C463.574 108.182 460.974 110.06 458.831 112.447C456.679 114.841 455.037 117.616 453.905 120.778C452.787 123.925 452.232 127.285 452.232 130.874V131.208C452.232 134.796 452.818 138.171 453.996 141.334C455.189 144.481 456.923 147.278 459.196 149.726C461.461 152.159 464.122 154.097 467.162 155.534C470.203 156.956 473.624 157.663 477.44 157.663Z" fill="black"/>
<path d="M548.769 83.1334H575.923V102.442C578.674 95.8742 582.437 90.6289 587.204 86.6911C591.963 82.7609 598.401 80.9745 606.513 81.3394V109.77H605.083C596.022 109.77 588.891 112.522 583.707 118.011C578.515 123.484 575.923 131.998 575.923 143.553V178.948H548.769V83.1334Z" fill="black"/>
<path d="M624.012 48.4385H652.625V72.5821H624.012V48.4385ZM624.741 83.1335H651.926V178.948H624.741V83.1335Z" fill="black"/>
<path d="M677.483 83.1336H704.637V96.9083C707.982 92.3699 712.003 88.6374 716.709 85.7183C721.407 82.7992 727.336 81.3396 734.497 81.3396C740.092 81.3396 745.513 82.4191 750.765 84.5628C756.011 86.7141 760.663 89.9069 764.723 94.1412C768.774 98.3602 772.02 103.537 774.453 109.679C776.901 115.822 778.132 122.892 778.132 130.874V131.208C778.132 139.198 776.901 146.26 774.453 152.402C772.02 158.544 768.805 163.736 764.814 167.971C760.815 172.19 756.193 175.375 750.948 177.519C745.695 179.662 740.214 180.742 734.497 180.742C727.238 180.742 721.247 179.313 716.527 176.454C711.821 173.596 707.86 170.251 704.637 166.42V207.561H677.483V83.1336ZM727.534 157.663C730.757 157.663 733.768 157.047 736.565 155.808C739.363 154.553 741.833 152.767 743.985 150.456C746.128 148.13 747.824 145.348 749.063 142.124C750.317 138.901 750.948 135.267 750.948 131.208V130.874C750.948 126.943 750.317 123.332 749.063 120.048C747.824 116.764 746.128 113.967 743.985 111.656C741.833 109.33 739.363 107.536 736.565 106.274C733.768 105.019 730.757 104.389 727.534 104.389C724.311 104.389 721.301 105.019 718.503 106.274C715.706 107.536 713.258 109.33 711.175 111.656C709.084 113.967 707.412 116.764 706.158 120.048C704.918 123.332 704.303 126.943 704.303 130.874V131.208C704.303 135.146 704.918 138.749 706.158 142.033C707.412 145.317 709.084 148.13 711.175 150.456C713.258 152.767 715.706 154.553 718.503 155.808C721.301 157.047 724.311 157.663 727.534 157.663Z" fill="black"/>
<path d="M843.552 181.107C836.391 181.107 829.747 179.906 823.604 177.519C817.477 175.132 812.179 171.734 807.701 167.332C803.239 162.915 799.75 157.708 797.241 151.703C794.748 145.682 793.501 138.977 793.501 131.573V131.208C793.501 124.42 794.656 117.996 796.967 111.93C799.294 105.848 802.547 100.55 806.728 96.0265C810.902 91.4881 815.881 87.9076 821.658 85.2926C827.436 82.6623 833.837 81.3396 840.876 81.3396C848.858 81.3396 855.776 82.7688 861.614 85.6271C867.452 88.4854 872.302 92.3319 876.179 97.1515C880.048 101.979 882.907 107.521 884.754 113.784C886.594 120.048 887.521 126.578 887.521 133.367C887.521 134.446 887.491 135.579 887.43 136.773C887.369 137.951 887.285 139.198 887.187 140.513H820.503C821.795 146.716 824.501 151.399 828.622 154.561C832.734 157.708 837.835 159.274 843.917 159.274C848.432 159.274 852.476 158.506 856.049 156.963C859.637 155.405 863.332 152.904 867.148 149.453L882.717 163.227C878.171 168.822 872.682 173.201 866.236 176.363C859.805 179.526 852.248 181.107 843.552 181.107ZM861.067 123.545C860.23 117.464 858.087 112.553 854.62 108.798C851.169 105.027 846.593 103.142 840.876 103.142C835.159 103.142 830.537 104.997 827.01 108.706C823.498 112.401 821.21 117.342 820.138 123.545H861.067Z" fill="black"/>
<path d="M906.647 150.334H935.625V178.948H906.647V150.334Z" fill="#51FF88"/>
</g>
</g>
<defs>
<clipPath id="clip0_35_6">
<rect width="847.25" height="164.5" fill="white" transform="translate(88.375 45.75)"/>
</clipPath>
<clipPath id="clip1_35_6">
<rect width="130.5" height="164.5" fill="white" transform="translate(88.375 45.75)"/>
</clipPath>
<clipPath id="clip2_35_6">
<rect width="642.5" height="164.5" fill="white" transform="translate(293.125 45.75)"/>
</clipPath>
</defs>
</svg>
